<svg width="972.5" height="468.75" xmlns="http://www.w3.org/2000/svg">
 <metadata id="metadata7">image/svg+xml</metadata>
 <g>
  <title>Layer 1</title>
  <g id="layer1">
   <path d="m669.279419,78.337311c0,0 7.756348,5.348846 10.670898,4.474487c2.914551,-0.874359 16.904297,-17.487206 18.070068,-16.029938c1.165894,1.457268 6.994934,18.361557 8.743652,19.235916c1.748718,0.874367 16.612854,3.206001 17.19574,4.663277c0.582886,1.45726 -3.497437,10.783768 -2.331604,11.949577c1.165771,1.16581 9.61792,-4.371803 9.61792,-4.371803c0,0 6.703491,8.743607 13.698303,11.658134c6.994934,2.914536 12.532532,4.663246 12.532532,4.663246l0,6.994896l-62.371033,0l0,-10.200874l-13.115417,0l0,-12.241043l-12.532471,0l-0.178589,-20.795876z" id="path4960" stroke-miterlimit="4" stroke-width="1.6" stroke="#000000" fill-rule="evenodd" fill="#ff7f00"/>
   <path d="m780.419128,314.213013l-0.824341,-52.346558l71.306641,-26.173248l0,23.08194l11.541016,0l0,17.929718l-17.105408,0l0,59.765717l-42.454224,0l0,-12.571411l-22.051514,0l-0.41217,-9.686157z" id="path13791" stroke-miterlimit="4" stroke-width="1.6" stroke="#000000" fill-rule="evenodd" fill="#ff7f00"/>
   <path d="m716.673462,193.126923l48.964172,0l0,13.698318l11.658142,0l0,22.733368l12.823975,0l0,12.823944l-52.753113,0l0,-23.89917l-19.964539,13.844025l-0.728638,-39.200485z" id="path11999" stroke-miterlimit="4" stroke-width="1.6" stroke="#000000" fill-rule="evenodd" fill="#ff7f00"/>
   <rect id="rect1400" width="110.46355" height="60.177906" x="9.64729" y="6.110376" stroke-dashoffset="0" stroke-miterlimit="4" stroke-width="1.6" stroke="#000000" fill="#ff0000"/>
   <rect y="6.110376" x="120.11085" height="60.177906" width="110.46355" id="rect1402" stroke-dashoffset="0" stroke-miterlimit="4" stroke-width="1.6" stroke="#000000" fill="#ff0000"/>
   <rect id="rect1404" width="110.46355" height="60.177906" x="228.9257" y="6.110376" stroke-dashoffset="0" stroke-miterlimit="4" stroke-width="1.6" stroke="#000000" fill="#ff0000"/>
   <path d="m339.389252,157.379486c0,0 6.182648,-1.236526 9.892273,-7.831375c3.709595,-6.594833 7.006989,-12.777496 8.655701,-9.480087c1.648682,3.29744 0.824371,23.08194 16.487091,23.906296c15.66275,0.824371 17.723633,-18.547974 22.669769,-20.608856c4.946136,-2.060898 10.716644,-1.648712 10.716644,-1.648712l0,-21.11396l-24.318512,0l0,-58.436279l-43.999939,0l-0.103027,95.212975z" id="path1406" stroke-miterlimit="4" stroke-width="1.6" stroke="#000000" fill-rule="evenodd" fill="#ff0000"/>
   <path d="m339.532654,62.118599l78.401001,0l0,-29.14534c0,0 -6.411987,-7.869249 -9.617981,-14.572668c-3.205994,-6.703441 -2.764984,-12.359222 -2.764984,-12.359222l-66.309479,0l0.291443,56.07723z" id="path1408" stroke-miterlimit="4" stroke-width="1.6" stroke="#000000" fill-rule="evenodd" fill="#ff0000"/>
   <rect id="rect1410" width="74.612083" height="56.250523" x="549.08771" y="6.159538" stroke-dashoffset="0" stroke-miterlimit="4" stroke-width="1.6" stroke="#000000" fill="#aa56ff"/>
   <rect id="rect1412" width="74.612083" height="59.165054" x="549.08771" y="61.621059" stroke-dashoffset="0" stroke-miterlimit="4" stroke-width="1.6" stroke="#000000" fill="#aa56ff"/>
   <rect id="rect1414" width="60.50293" height="48.466618" x="598.79022" y="183.27788" stroke-dashoffset="0" stroke-miterlimit="4" stroke-width="1.6" stroke="#000000" fill="#ff7f00"/>
   <rect id="rect1416" width="57.707787" height="65.868484" x="659.25714" y="153.63498" stroke-dashoffset="0" stroke-miterlimit="4" stroke-width="1.6" stroke="#000000" fill="#ff7f00"/>
   <rect id="rect1418" width="59.735485" height="62.67532" x="538.88678" y="120.83496" stroke-dashoffset="0" stroke-miterlimit="4" stroke-width="1.6" stroke="#000000" fill="#007f3f"/>
   <rect id="rect1420" width="65.431305" height="57.124882" x="545.59027" y="325.00961" stroke-dashoffset="0" stroke-miterlimit="4" stroke-width="1.6" stroke="#000000" fill="#ff7f00"/>
   <rect id="rect1422" width="85.356949" height="49.616051" x="408.02423" y="120.48713" stroke-dashoffset="0" stroke-miterlimit="4" stroke-width="1.6" stroke="#000000" fill="#007f3f"/>
   <rect y="169.95636" x="408.02423" height="48.96418" width="85.104408" id="rect1426" stroke-dashoffset="0" stroke-miterlimit="4" stroke-width="1.6" stroke="#000000" fill="#007f3f"/>
   <rect id="rect1428" width="85.104408" height="48.96418" x="408.02423" y="218.92056" stroke-dashoffset="0" stroke-miterlimit="4" stroke-width="1.6" stroke="#000000" fill="#007f3f"/>
   <path d="m417.933655,36.179241l18.070129,0c0,0 8.160675,10.200878 12.241028,16.61285c4.080353,6.41198 6.651093,11.520065 6.651093,11.520065l0,56.38858l-71.35376,0l-0.145721,-58.582138l34.391479,0l0.145752,-25.939358z" id="path1430" stroke-miterlimit="4" stroke-width="1.6" stroke="#000000" fill-rule="evenodd" fill="#ff0000"/>
   <path d="m405.10968,6.45099c0,0 2.623077,12.241049 5.246155,16.612851c2.623077,4.371798 8.160706,10.78377 8.160706,10.78377l0,2.331631l17.19577,0c0,0 11.949554,14.572678 14.281219,18.944477c2.331635,4.371803 4.954712,9.326508 4.954712,9.326508l0,11.075233l15.155548,0c0,0 1.748749,5.829071 7.869263,8.452164c6.120544,2.62307 13.698303,8.16069 17.19577,8.452141c3.497406,0.291458 8.160706,-5.537621 8.160706,-5.537621l0,-80.732613l-98.219849,0.29146z" id="path1432" stroke-miterlimit="4" stroke-width="1.6" stroke="#000000" fill-rule="evenodd" fill="#ff0000"/>
   <rect id="rect1434" width="46.341103" height="75.813614" x="502.74658" y="6.141685" stroke-dashoffset="0" stroke-miterlimit="4" stroke-width="1.6" stroke="#000000" fill="#aa56ff"/>
   <path d="m454.656769,74.942558l16.029968,0c0,0 1.457245,6.703423 13.115387,12.532501c11.658142,5.829063 13.406891,5.537613 16.612854,2.914528c3.205994,-2.623077 2.182068,-8.522408 2.182068,-8.522408l46.34491,0l0,38.954292l-94.285187,-0.126274l0,-45.75264z" id="path1436" stroke-miterlimit="4" stroke-width="1.6" stroke="#000000" fill-rule="evenodd" fill="#aa56ff"/>
   <path d="m493.131409,120.841431l45.751709,0l0,62.65097l-12.777466,0l0,23.49411l-32.562042,0l-0.412201,-86.145081z" id="path1438" stroke-miterlimit="4" stroke-width="1.6" stroke="#000000" fill-rule="evenodd" fill="#007f3f"/>
   <path d="m339.411926,157.132416l0,65.868484l46.17038,0l0,-14.572678l22.441925,0l0,-67.325729c0,0 -9.617981,-0.582916 -12.532501,2.91452c-2.914551,3.497452 -7.286346,20.110291 -19.235962,19.818848c-11.949554,-0.291458 -15.447021,-7.286346 -16.321381,-12.241058c-0.874329,-4.954697 -1.457245,-15.155579 -3.788879,-12.532501c-2.331635,2.623093 -7.869232,14.572678 -11.366669,16.612854c-3.497467,2.040176 -4.783997,2.623077 -5.366913,1.45726z" id="path2314" stroke-miterlimit="4" stroke-width="1.6" stroke="#000000" fill-rule="evenodd" fill="#007f3f"/>
   <path d="m493.337524,207.046875l33.180298,0l0,25.555008l24.730591,0l0,68.215347l-57.910889,0l0,-93.770355z" id="path3191" stroke-miterlimit="4" stroke-width="1.6" stroke="#000000" fill-rule="evenodd" fill="#007fff"/>
   <path d="m339.183167,222.915695l46.576019,0l0,-14.838379l22.257599,0l0,56.880478l-49.255188,0l0,11.74707l-19.578461,0l0.000031,-53.789169z" id="path3193" stroke-miterlimit="4" stroke-width="1.6" stroke="#000000" fill-rule="evenodd" fill="#007f3f"/>
   <path d="m598.634766,120.846474l34.974426,0l0,24.627815c0,0 5.829041,-0.874359 8.452148,0.582901c2.623108,1.457275 4.371826,4.663254 6.994873,5.829071c2.623108,1.165802 10.492371,1.165802 10.492371,1.165802l0,30.311172l-60.913818,0l0,-62.516762z" id="path3195" stroke-miterlimit="4" stroke-width="1.6" stroke="#000000" fill-rule="evenodd" fill="#ff7f00"/>
   <path d="m623.554077,6.15953l78.40094,0l-0.145691,30.311169c0,0 -4.819946,4.265263 -9.611328,5.549099c-4.791382,1.283852 -7.584412,6.983402 -11.081848,8.149212c-3.497498,1.16581 -6.70343,-2.331631 -9.909424,-1.457272c-3.206055,0.874371 -6.994934,4.954712 -6.120544,6.70343c0.874329,1.748722 2.893799,6.120522 2.893799,6.120522l-44.280212,0l-0.145691,-55.37616z" id="path3197" stroke-miterlimit="4" stroke-width="1.6" stroke="#000000" fill-rule="evenodd" fill="#ff7f00"/>
   <path d="m623.699829,61.24424l43.280762,0c0,0 0.437195,4.371803 4.226135,4.663261c3.788879,0.291451 3.205994,-3.497452 7.869202,-2.914532c4.663269,0.582901 7.57782,2.623074 5.537659,4.371792c-2.040222,1.748726 -13.40686,5.537621 -12.532532,8.160698c0.87439,2.623077 -3.060303,3.060257 -3.060303,3.060257l0,19.964577l13.261169,0l0,13.115395l-23.607727,0l0,12.823952l-25.356445,0l0,-3.497452l-9.909424,0l0.291504,-59.747948z" id="path3199" stroke-miterlimit="4" stroke-width="1.6" stroke="#000000" fill-rule="evenodd" fill="#ff7f00"/>
   <path d="m701.692993,6.11038l0,30.913321c0,0 -10.098022,4.121799 -12.36499,6.182598c-2.267029,2.060902 -7.007019,8.037502 -8.862,8.037502c-1.85498,0 -5.976013,-3.297401 -8.862,-2.473103c-2.88501,0.824402 -6.595032,3.503601 -6.595032,5.7705c0,2.267002 3.298035,9.892303 4.740051,11.3349c1.442993,1.442604 4.94696,-2.473099 7.006958,-2.679199c2.061035,-0.206001 9.067993,1.648804 8.450012,3.0914c-0.617981,1.442604 -12.776978,5.976501 -13.190002,8.037399c-0.411987,2.060898 0.619019,3.709602 -0.823975,4.121803c-1.442993,0.412201 3.915955,3.297401 3.915955,3.297401c0,0 4.328003,2.473099 7.419006,0.824394c3.091003,-1.648697 13.190002,-17.311501 15.869019,-15.662796c2.679016,1.648796 5.564026,16.8993 7.830994,18.547997c2.267029,1.648705 18.548035,2.8853 17.929993,6.388802c-0.617981,3.503502 -4.122009,8.037399 -2.472961,10.098701c1.648987,2.060997 9.273987,-3.503899 9.273987,-3.503899c0,0 2.88501,5.564896 8.862,8.8619c5.976013,3.296997 17.723022,7.006996 17.723022,7.006996l0,7.007004l29.05896,0l0,-115.615803l-84.908997,0.41218l0,0z" id="path3201" stroke-miterlimit="4" stroke-width="1.6" stroke="#000000" fill-rule="evenodd" fill="#ff7f00"/>
   <path d="m598.634827,231.744507l0,7.869247c0,0 11.658081,2.623093 19.818787,14.864136c8.160706,12.241043 16.612854,17.487198 17.487244,23.316269c0.874329,5.829071 1.748718,7.577789 6.994873,10.200867c5.246155,2.623108 16.029907,3.497437 16.029907,3.497437l0,-59.456497l-60.330811,-0.291458z" id="path4077" stroke-miterlimit="4" stroke-width="1.6" stroke="#000000" fill-rule="evenodd" fill="#ff7f00"/>
   <path d="m598.92627,239.905212l0,61.628082l83.647095,0l0.178589,-15.662628c0,0 -6.590576,7.661987 -10.087952,7.661987c-3.497437,0 -13.406921,-2.040192 -13.406921,-2.040192c0,0 -19.964539,-3.643158 -20.547424,-6.849152c-0.582886,-3.205994 -2.477356,-9.472229 -5.100464,-12.386749c-2.623047,-2.914551 -16.931763,-20.673386 -19.235901,-23.8992c-3.643188,-5.100433 -15.155579,-8.452148 -15.447021,-8.452148z" id="path4079" stroke-miterlimit="4" stroke-width="1.6" stroke="#000000" fill-rule="evenodd" fill="#ff7f00"/>
   <path d="m551.127869,232.618866c0,0 15.155579,-0.291443 18.653015,0c3.497437,0.291458 9.628357,1.301193 14.874512,3.049911c5.246155,1.748718 14.185425,3.42244 14.185425,3.42244l0.085449,85.772675l-47.798401,0l0,-92.245026z" id="path4081" stroke-miterlimit="4" stroke-width="1.6" stroke="#000000" fill-rule="evenodd" fill="#ff7f00"/>
   <path d="m339.183167,276.498779l0,62.444885c0,0 4.32785,-1.442627 6.388733,1.236511c2.060883,2.679169 5.152222,7.007019 5.152222,7.007019l21.639343,0l0,-33.798523l-7.625305,0l0,-25.967194l-18.547974,0l0,-10.716614l-7.007019,-0.206085z" id="path4083" stroke-miterlimit="4" stroke-width="1.6" stroke="#000000" fill-rule="evenodd" fill="#007fff"/>
   <path d="m695.510559,111.627792l0,10.304436l21.021057,0l0,32.974205l-56.880493,0c0,0 -9.480103,-1.648712 -11.953186,-3.70961c-2.473022,-2.060883 -6.594788,-7.007019 -8.655701,-6.594833c-2.060852,0.41217 -5.770447,1.648712 -5.770447,1.648712l0,-22.257584l25.554993,0l0,-12.365326l36.683777,0z" id="path4958" stroke-miterlimit="4" stroke-width="1.6" stroke="#000000" fill-rule="evenodd" fill="#ff7f00"/>
   <path d="m598.92627,301.110443l83.647095,0l0,30.019684l-22.733337,0c0,0 -7.286377,2.623108 -5.829102,5.246155c1.457275,2.623108 5.246155,13.698334 5.246155,13.698334l-48.089783,0l0,-25.065002l-12.532532,0l0.291504,-23.89917z" id="path4962" stroke-miterlimit="4" stroke-width="1.6" stroke="#000000" fill-rule="evenodd" fill="#ff7f00"/>
   <path d="m656.765869,332.142731c-3.297424,2.885254 -3.091309,3.091339 -2.060852,5.976563c1.030396,2.885254 4.946106,11.953156 4.946106,11.953156l-23.494141,0l0,17.311462l33.180298,0c0,0 1.030457,0.618256 1.854797,2.266968c0.824402,1.648682 0,4.533966 0,4.533966l17.517578,0l0,-24.122772l7.007019,0l0,-12.973206l-13.189697,0l0,-5.770508l-22.6698,0l-3.091309,0.824371z" id="path6710" stroke-miterlimit="4" stroke-width="1.6" stroke="#000000" fill-rule="evenodd" fill="#ff7f00"/>
   <path d="m346.648285,276.9198l12.532471,0l-0.41217,-12.241058l48.964172,0l0,3.205994c0,0 1.748749,4.663269 3.205994,7.869232c1.457245,3.206024 -0.291443,13.40686 1.457245,14.864166c1.748749,1.457245 3.497467,4.954681 3.206024,6.994873c-0.291473,2.040161 -0.582916,10.200836 -0.582916,10.200836l-13.40686,0c0,0 -1.457275,1.748749 -2.914551,5.537628c-1.457245,3.78891 -1.165802,5.246185 -1.165802,5.246185l-25.235718,0l0,-5.246185l-6.70343,0l0,-25.939362l-18.653046,0l-0.291412,-10.49231z" id="path6712" stroke-miterlimit="4" stroke-width="1.6" stroke="#000000" fill-rule="evenodd" fill="#007fff"/>
   <path d="m415.023804,304.114685l8.861816,0c0,0 3.50351,-5.564423 5.770508,-2.266998c2.266968,3.297424 -1.030487,12.571411 0.206055,16.693176c1.236572,4.121765 7.625305,5.358307 7.625305,5.358307l0,13.189697l-9.480103,0c0,0 -2.473053,3.709564 -4.740021,12.777496c-2.266968,9.067902 -3.709625,19.372345 -3.709625,19.372345c0,0 -11.540955,-15.044464 -14.632294,-12.777496c-3.091339,2.266968 -0.206085,10.510498 -6.388733,10.510498c-6.182648,0 -8.861816,-7.419159 -13.395752,-7.007019c-4.533966,0.41217 -7.625305,7.41922 -12.571442,6.800934c-4.946106,-0.618256 -21.433197,-19.372314 -21.433197,-19.372314l21.227142,0l0,-29.058533l24.936707,0c0,0 1.030457,-3.91568 2.885254,-7.213104c1.854797,-3.297424 2.473053,-3.50351 2.473053,-3.50351l12.777496,0l-0.41217,-3.503479z" id="path6714" stroke-miterlimit="4" stroke-width="1.6" stroke="#000000" fill-rule="evenodd" fill="#007fff"/>
   <path d="m408.016785,267.843048l85.32074,0l0,33.386383l-26.791534,0l0,35.653351l-19.784515,0l0,-7.007019l-9.273987,0l0,-6.388763c0,0 -7.83136,-2.266968 -8.037476,-5.152222c-0.206085,-2.885254 2.679169,-15.044464 0.206116,-16.281006c-2.473083,-1.236542 -5.770508,2.060913 -5.770508,2.060913l-8.861816,0c0,0 1.442627,-5.976593 -0.206085,-9.480103c-1.648712,-3.50351 -2.885223,-4.533966 -2.885223,-7.419189c0,-2.885254 0.206055,-11.128784 -0.824371,-12.365326c-1.030426,-1.236542 -3.091339,-7.625275 -3.091339,-7.007019z" id="path6716" stroke-miterlimit="4" stroke-width="1.6" stroke="#000000" fill-rule="evenodd" fill="#007fff"/>
   <path d="m419.351685,368.208282c0,0 3.709564,17.929688 7.213104,21.845398c3.50351,3.915649 19.990601,-1.442657 22.051483,0c2.060883,1.442596 7.625275,7.83136 14.220123,9.273956c6.594849,1.442627 10.510529,3.50354 13.601868,3.091339c3.091309,-0.41217 5.976563,-3.091339 8.449615,-3.50351c2.473083,-0.41217 5.564392,0 5.564392,0l0,-25.761108l-5.152222,0l0,-23.287994l-18.547974,0l0,-12.983582l-20.402802,0l0,-7.213104l-8.861786,0l0,7.406097l-9.480103,0c0,0 -4.533936,10.93576 -5.976563,16.912354c-1.442627,5.976563 -2.473083,14.220154 -2.679138,14.220154z" id="path6718" stroke-miterlimit="4" stroke-width="1.6" stroke="#000000" fill-rule="evenodd" fill="#007fff"/>
   <path d="m466.897827,301.110474l84.212402,-0.291473l0.103027,24.190613l-6.205933,0l0,25.356476c0,0 -7.286316,-2.623077 -11.075195,1.165802c-3.788879,3.78891 -10.200867,7.130676 -19.527405,8.879395c-9.326508,1.748718 -28.562439,2.778748 -28.562439,2.778748l0,-13.115417l-19.235901,0l0.291443,-48.964142z" id="path7593" stroke-miterlimit="4" stroke-width="1.6" stroke="#000000" fill-rule="evenodd" fill="#007fff"/>
   <path d="m485.259399,363.190033l0,9.909393l5.537598,0l0,25.647919c0,0 13.115417,14.572662 16.904297,13.40686c3.78891,-1.165802 10.492371,-14.864105 13.989807,-12.823944c3.497375,2.040192 7.577759,2.914551 13.115356,3.205994c5.537659,0.291443 10.783752,0 10.783752,0l0,-52.753082c0,0 -4.663208,-2.623077 -8.743591,-0.582886c-4.080322,2.040161 -7.869202,7.577728 -22.441895,10.492279c-14.572632,2.914551 -29.436768,3.497467 -29.145325,3.497467z" id="path7595" stroke-miterlimit="4" stroke-width="1.6" stroke="#000000" fill-rule="evenodd" fill="#007fff"/>
   <path d="m526.35437,183.363235l72.571899,0l-0.206116,56.044434c0,0 -7.95459,-2.70845 -13.200745,-2.999893c-5.246216,-0.291458 -12.823975,-4.663269 -15.447083,-4.080353c-2.623047,0.582901 -43.572266,0 -43.572266,0l-0.145691,-48.964188z" id="path3189" stroke-miterlimit="4" stroke-width="1.6" stroke="#000000" fill-rule="evenodd" fill="#007f3f"/>
   <path d="m545.736023,401.953339c0,0 3.351685,0.874359 3.643127,2.914551c0.291504,2.040161 -1.748718,10.783752 0.87439,12.823944c2.623047,2.040192 15.447021,-1.748749 16.32135,0.582886c0.87439,2.331665 -4.954712,14.864136 -0.874329,18.944489c4.080322,4.080353 11.949585,3.78891 14.572693,1.748718c2.623047,-2.040161 14.864136,-19.527374 18.361572,-17.778656c3.497375,1.748718 12.291016,10.81311 12.291016,10.81311l0.206116,-50.159332l-65.541748,0l0.145813,20.110291z" id="path8488" stroke-miterlimit="4" stroke-width="1.6" stroke="#000000" fill-rule="evenodd" fill="#ff7f00"/>
   <path d="m611.167297,350.074615l25.065002,0l0,17.19577l33.225647,0c0,0 2.331665,2.331635 2.040222,4.080322c-0.291443,1.748718 -0.874329,2.930725 -0.874329,2.930725l11.366638,0l0,21.259918l-4.080322,0l0,14.572693l-66.742859,0.145691l0,-60.18512z" id="path8490" stroke-miterlimit="4" stroke-width="1.6" stroke="#000000" fill-rule="evenodd" fill="#ff7f00"/>
   <path d="m611.220276,432.301849c0,0 8.449646,-3.709625 10.716614,-1.236542c2.266968,2.473053 -1.236511,11.3349 3.091309,12.983582c4.327881,1.648712 11.128784,-3.297424 14.632324,-4.946106c3.503479,-1.648712 11.3349,-9.686188 14.426208,-6.800934c3.091309,2.885254 -1.854797,14.014008 -0.618286,16.899292c1.236572,2.885223 5.770508,10.304413 8.655762,9.273956c2.885193,-1.030426 2.473083,-13.189667 5.976563,-16.07489c3.503479,-2.885254 9.480042,-6.182678 9.892273,-9.686188l4.946106,-6.388763l0,-8.243561l-4.946106,0l0,-8.037415l-66.772766,0l0,22.257568z" id="path10238" stroke-miterlimit="4" stroke-width="1.6" stroke="#000000" fill-rule="evenodd" fill="#ff7f00"/>
   <path d="m659.651123,219.412201l57.292664,0l0,9.480072c0,0 -5.152222,-4.327866 -11.74707,-2.679153c-6.594849,1.648727 -6.800903,3.091324 -6.800903,3.091324l0,64.093597c0,0 -5.792114,-2.405029 -8.975708,-2.405029c-3.183533,0 -5.850586,-5.850616 -5.850586,-5.850616c0,0 -7.019104,8.255646 -8.564819,8.564789c-1.545654,0.309143 -15.559692,-2.576111 -15.559692,-2.576111l0.206116,-71.718872z" id="path11114" stroke-miterlimit="4" stroke-width="1.6" stroke="#000000" fill-rule="evenodd" fill="#ff7f00"/>
   <path d="m683.969604,285.15451c0,0 2.060852,4.740021 5.770447,5.976563c3.709595,1.236542 8.243591,2.679138 9.480103,3.709595c1.236511,1.030457 3.915649,6.388763 7.213135,6.388763c3.297424,0 7.625244,-7.625305 12.15918,-6.594849c4.533997,1.030426 8.861877,5.358276 11.74707,4.946136c2.885254,-0.41217 10.098328,-7.213104 10.098328,-7.213104l0,35.035095l-9.273926,0l0,22.669739l-35.241211,0l0,-12.983582l-13.189697,0l0,-50.903931l1.236572,-1.030426z" id="path11116" stroke-miterlimit="4" stroke-width="1.6" stroke="#000000" fill-rule="evenodd" fill="#ff7f00"/>
   <path d="m697.728943,228.829987c0,0 8.5979,-3.788895 12.095337,-2.914551c3.497437,0.874374 8.306458,4.954712 8.306458,4.954712c0,0 4.954651,-2.040161 9.909363,-5.829056c4.954773,-3.788895 9.035095,-6.703445 9.035095,-6.703445l0,46.049652c0,0 -4.080322,0.874359 -4.371826,2.331635c-0.291443,1.457275 0,30.894073 0,30.894073c0,0 -1.165771,2.331604 -3.497437,2.040161c-2.331604,-0.291443 -9.035034,-5.829071 -11.366699,-5.537628c-2.331604,0.291473 -9.326477,7.869263 -11.658142,7.286346c-2.331604,-0.582886 -8.452148,-8.452148 -8.452148,-8.452148l0,-64.119751z" id="path11118" stroke-miterlimit="4" stroke-width="1.6" stroke="#000000" fill-rule="evenodd" fill="#ff7f00"/>
   <rect id="rect11993" width="25.647886" height="81.044144" x="786.62225" y="5.669642" stroke-dashoffset="0" stroke-miterlimit="4" stroke-width="1.6" stroke="#000000" fill="#ff7f00"/>
   <path d="m786.622253,86.600693l19.235962,0l0,34.974411l7.57782,0l0,35.557312l-7.869263,0l0,7.577789l-22.733398,0l0,-31.185516l-30.6026,0l0,-11.658142l34.682983,0l-0.291504,-35.265854z" id="path11995" stroke-miterlimit="4" stroke-width="1.6" stroke="#000000" fill-rule="evenodd" fill="#ff7f00"/>
   <path d="m716.673462,121.866547l35.265869,0l0,11.366699l30.894043,0l0,31.476959l-17.19574,0l0,28.562454l-49.255676,0l0.291504,-71.406113z" id="path11997" stroke-miterlimit="4" stroke-width="1.6" stroke="#000000" fill-rule="evenodd" fill="#ff7f00"/>
   <path d="m811.950684,5.49211l36.889893,0l0,53.789159l-36.889893,0l0,-53.789159z" id="path12001" stroke-miterlimit="4" stroke-width="1.6" stroke="#000000" fill-rule="evenodd" fill="#ff7f00"/>
   <path d="m812.362854,59.07518l46.163879,0l0,13.601852l-10.098328,0l0,59.353546l-13.807922,0c0,0 1.854736,-4.327866 -2.679199,-7.625282c-4.533936,-3.297424 -18.547974,-2.679153 -18.547974,-2.679153l-7.83136,0l0,-34.828979l7.213135,0l-0.412231,-27.821983z" id="path12003" stroke-miterlimit="4" stroke-width="1.6" stroke="#000000" fill-rule="evenodd" fill="#ff7f00"/>
   <path d="m737.220886,242.236847l52.753113,0l0,19.527374c0,0 -6.849182,2.040161 -9.180786,8.889343c-2.331604,6.849121 0,43.718018 0,43.718018l-40.512024,0l0,-21.859009l-7.432068,5.974762c0,0 -0.87439,-30.894043 0,-32.205597c0.874329,-1.311523 4.080322,-2.185913 4.080322,-2.185913l0.291443,-21.858978z" id="path12005" stroke-miterlimit="4" stroke-width="1.6" stroke="#000000" fill-rule="evenodd" fill="#ff7f00"/>
   <path d="m765.58075,164.592606l46.98822,0l0,15.66272l5.976563,0l0,23.700211l-8.861816,-0.206085c0,0 -2.885254,3.50351 -4.533936,9.067902c-1.648743,5.564407 -2.266968,16.863922 -2.266968,16.863922l-25.761108,0l0,-22.634399l-11.953125,0l0.41217,-42.454269z" id="path12007" stroke-miterlimit="4" stroke-width="1.6" stroke="#000000" fill-rule="evenodd" fill="#ff7f00"/>
   <path d="m790.105286,229.716629l0,32.355942c0,0 10.510559,-0.824371 11.953125,-3.091339c1.442627,-2.266968 2.679199,-4.121765 2.679199,-4.121765l16.899231,0c0,0 1.648743,-6.800934 3.50354,-6.800934c1.854797,0 10.922729,0 10.922729,0c0,0 3.091309,-2.060898 4.73999,-3.70961c1.648743,-1.648697 2.885254,-6.182648 4.327881,-6.182648c1.442627,0 5.770447,1.442612 6.388733,0.41217c0.618286,-1.030441 1.442627,-2.885239 2.885254,-3.091324c1.442627,-0.206085 7.419189,-0.206085 7.419189,-0.206085l0,-31.3255l-51.109985,0c0,0 -3.50354,-2.060883 -5.770508,10.304443c-2.266968,12.365326 -2.473083,15.45665 -2.473083,15.45665l-12.365295,0z" id="path12009" stroke-miterlimit="4" stroke-width="1.6" stroke="#000000" fill-rule="evenodd" fill="#ff7f00"/>
   <path d="m848.409973,5.47359l46.342041,0.10304l0,67.034271l-36.432007,0l0,-13.527599l-9.327026,0l-0.583008,-53.609712l0,0z" id="path12011" stroke-miterlimit="4" stroke-width="1.6" stroke="#000000" fill-rule="evenodd" fill="#ff7f00"/>
   <path d="m894.872253,5.62967l43.341187,-0.10305l0,44.059489l-43.220459,0l-0.120728,-43.956439z" id="path12013" stroke-miterlimit="4" stroke-width="1.6" stroke="#000000" fill-rule="evenodd" fill="#ff7f00"/>
   <path d="m895.04303,49.877602l0,68.783401l52.169983,0l-9.035034,-39.929504l0,-28.853897l-43.134949,0l0,0l0,0z" id="path12015" stroke-miterlimit="4" stroke-width="1.6" stroke="#000000" fill-rule="evenodd" fill="#ff7f00"/>
   <path d="m920.399414,118.952019l0,71.114647l39.637695,0l-12.241089,-71.114647l-27.396606,0z" id="path12017" stroke-miterlimit="4" stroke-width="1.6" stroke="#000000" fill-rule="evenodd" fill="#ff7f00"/>
   <path d="m884.326843,189.483765l75.418823,0l5.246155,34.39151c0,0 -10.200867,15.155563 -12.241089,13.115402c-2.040161,-2.040176 -2.040161,-6.70343 -4.371765,-5.24617c-2.331604,1.457275 -5.246155,8.160706 -7.869263,6.120529c-2.623047,-2.040176 -6.994873,-9.035049 -10.49231,-8.452148c-3.497437,0.582901 -4.954712,3.788895 -7.869263,2.914536c-2.914551,-0.874359 0.87439,-5.537628 -4.080322,-4.663269c-4.954712,0.874359 -6.994934,3.78891 -8.160706,0.874359c-1.165833,-2.914536 -2.331665,-6.70343 -4.954712,-6.120514c-2.623108,0.582901 -7.286316,1.748718 -8.160706,-1.457275c-0.87439,-3.205978 -2.623047,-6.994873 -5.829041,-9.035049c-3.206055,-2.040176 -6.618103,-4.816299 -6.618103,-4.816299l-0.0177,-17.62561z" id="path12019" stroke-miterlimit="4" stroke-width="1.6" stroke="#000000" fill-rule="evenodd" fill="#ff7f00"/>
   <path d="m848.737549,131.927536l35.550293,0.309128l0,-13.807945l10.922668,0l0,-45.751686l-46.163879,0l-0.309082,59.250504z" id="path12894" stroke-miterlimit="4" stroke-width="1.6" stroke="#000000" fill-rule="evenodd" fill="#ff7f00"/>
   <path d="m920.107971,118.660561l0,70.823204l-35.848755,0l-0.41217,-22.356552l-14.160522,0.206085c0,0 6.39209,-6.579651 4.447083,-7.702591c-1.945007,-1.12294 -9.110352,-3.955551 -7.361633,-9.784622c1.748718,-5.829071 7.936951,-17.725632 7.936951,-17.725632l9.550293,0l0,-13.459892l35.848755,0z" id="path12896" stroke-miterlimit="4" stroke-width="1.6" stroke="#000000" fill-rule="evenodd" fill="#ff7f00"/>
   <path d="m811.687256,165.001663l14.28125,0c0,0 -1.165833,7.286346 3.205933,8.743607c4.371826,1.457275 9.909485,-4.080353 12.532532,-4.080353c2.623108,0 12.532532,0 12.532532,0l1.457214,-2.623077l28.270996,0l0.291504,39.929123c0,0 7.577759,4.663254 8.160706,6.120529c0.582886,1.45726 -11.36676,30.311157 -17.195801,30.019714c-5.829041,-0.291458 -13.698303,-4.663254 -13.698303,-4.663254l0,-34.682968l-43.135132,0l0,-23.316284l-6.120544,0l-0.582886,-15.447037z" id="path12898" stroke-miterlimit="4" stroke-width="1.6" stroke="#000000" fill-rule="evenodd" fill="#ff7f00"/>
   <path d="m813.144531,122.012283c0,0 17.771362,-0.625595 20.540161,3.600479c2.768799,4.226074 1.027405,6.454666 1.027405,6.454666l39.929138,0c0,0 -9.472229,18.215836 -8.015015,20.693176c1.457336,2.477371 8.452209,6.703445 8.015015,7.723541c-0.437195,1.020081 -4.371826,6.70343 -4.371826,6.70343l-14.64032,0l-1.38385,2.650757l-13.704041,0.103058c0,0 -8.470093,6.240067 -11.341736,4.095322c-4.308838,-3.218079 -4.142822,-9.569748 -4.140686,-9.567947l-19.637756,0.05304l0,-7.389389l7.869263,0l-0.145752,-35.120132z" id="path12916" stroke-miterlimit="4" stroke-width="1.6" stroke="#000000" fill-rule="evenodd" fill="#ff7f00"/>
   <path d="m850.901428,238.990616c0,0 1.442688,-2.885239 2.266968,-3.297409c0.824402,-0.41217 8.243591,-0.41217 8.243591,-0.41217l0.618286,3.297409c0,0 10.304443,5.564392 13.189636,4.533951c2.885254,-1.030441 11.3349,-14.014038 12.983582,-17.517532c1.648743,-3.50351 4.946167,-12.365341 4.946167,-12.365341c0,0 3.709595,9.067902 5.358276,9.686172c1.648743,0.618271 7.213135,-1.442612 8.037476,-0.41217c0.824341,1.030441 3.709595,7.625275 4.533936,7.625275c0.824402,0 8.861816,-3.091324 9.273987,-2.266953c0.41217,0.824341 0.41217,4.533936 1.442627,4.740036c1.030457,0.206085 1.236572,0.206085 1.236572,0.206085l0,16.899277l-13.189697,0l0,21.845398l-47.194336,0l0,-12.777496l-11.74707,0l0,-19.784531z" id="path13793" stroke-miterlimit="4" stroke-width="1.6" stroke="#000000" fill-rule="evenodd" fill="#ff7f00"/>
   <path d="m923.168213,233.056046c0,0 6.411987,-4.954697 7.869263,-3.788879c1.457275,1.165802 9.472229,9.61795 10.638062,9.472229c1.165771,-0.145737 6.557678,-7.723526 7.577759,-7.432068c1.020081,0.291458 2.331665,5.829071 3.643188,5.68335c1.311523,-0.145721 12.241028,-13.261139 12.241028,-13.261139l0,122.832993l-54.647522,0l0,-22.718719l-13.989746,0l0,-24.190643c0,0 4.663269,-1.457275 5.537598,-4.080353c0.87439,-2.623077 -0.582886,-6.411987 1.748718,-7.869232c2.331604,-1.457275 5.829102,-0.376831 5.829102,-0.376831l0,-37.30603l13.989746,-0.206085l-0.437195,-16.758591z" id="path13795" stroke-miterlimit="4" stroke-width="1.6" stroke="#000000" fill-rule="evenodd" fill="#ff7f00"/>
   <path d="m862.69165,271.090729l46.924011,0l0,16.321381c0,0 -6.120544,-1.748688 -6.70343,0c-0.582947,1.748718 0.291443,8.452148 -1.165833,9.617981c-1.457275,1.165802 -5.537598,2.623077 -5.537598,2.623077l0,24.190643l-51.004395,0l0,-46.924011l18.070129,0l-0.582886,-5.829071z" id="path13797" stroke-miterlimit="4" stroke-width="1.6" stroke="#000000" fill-rule="evenodd" fill="#ff7f00"/>
   <path d="m897.95752,346.577179l67.617188,0l0,118.330109c0,0 -11.366699,-5.246155 -20.693237,-7.286346c-9.326477,-2.040161 -8.743591,-7.577789 -14.572632,-7.869232c-5.829102,-0.291473 -9.035034,-2.914551 -13.989807,-8.160675c-4.954651,-5.246216 -6.411926,-5.537659 -10.783752,-5.829102c-4.371765,-0.291443 -8.452148,-6.411957 -12.241028,-8.160706c-3.788879,-1.748688 -6.120544,-2.623077 -6.120544,-2.623077l0,-42.260742l10.783813,0l0,-36.140228z" id="path13799" stroke-miterlimit="4" stroke-width="1.6" stroke="#000000" fill-rule="evenodd" fill="#ff7f00"/>
   <path d="m845.49585,323.843811l64.994141,0l0,22.733368l-12.823914,0l0,36.723114l-10.200867,0l0,12.532532l-71.697571,0l0,-48.964203l12.532471,0l0,-10.783752l17.778687,0l-0.582947,-12.241058z" id="path13801" stroke-miterlimit="4" stroke-width="1.6" stroke="#000000" fill-rule="evenodd" fill="#ff7f00"/>
   <path d="m740.572632,314.517303l40.220581,0l0,32.351318c0,0 -5.246155,0.87439 -5.829102,3.497467c-0.582886,2.623047 0,12.532471 0,12.532471l-44.00946,0l0,-35.848755l9.326538,0l0.291443,-12.532501z" id="path14676" stroke-miterlimit="4" stroke-width="1.6" stroke="#000000" fill-rule="evenodd" fill="#ff7f00"/>
   <path d="m781.084656,323.843811l21.567566,0l0,12.241028l25.647888,0l0,11.366699l-12.823914,0l0,48.381287l-71.989075,0l0,-32.982697l31.768494,0c0,0 -1.748779,-10.443878 0.291443,-13.066956c2.040161,-2.623077 5.537598,-2.623077 5.537598,-2.623077l0,-23.316284z" id="path14678" stroke-miterlimit="4" stroke-width="1.6" stroke="#000000" fill-rule="evenodd" fill="#ff7f00"/>
   <path d="m682.114807,374.287872l6.800903,0l0,-24.215424l41.939087,0l0,12.880524l12.57135,0l0,32.768127c0,0 -4.843079,6.182648 -11.850037,6.388763c-7.00708,0.206085 -14.42627,-6.903992 -14.42627,-6.903992l-34.932007,0l-0.103027,-20.917999z" id="path14680" stroke-miterlimit="4" stroke-width="1.6" stroke="#000000" fill-rule="evenodd" fill="#ff7f00"/>
   <path d="m678.199097,395.411957l39.15686,0c0,0 4.121765,3.50351 6.182678,4.740051c2.060913,1.236542 3.812622,1.648682 3.812622,1.648682c0,0 1.957825,9.274017 -1.957825,12.571442c-3.91571,3.297394 -5.152222,4.740051 -4.121765,6.800934c1.030396,2.060883 3.297363,5.358307 3.297363,5.358307l-4.73999,5.564392c0,0 -6.800964,-2.473053 -8.24353,0c-1.442627,2.473083 0,11.334869 -6.182678,10.304443c-6.182678,-1.030426 -8.861816,-4.946136 -12.159241,-4.946136c-3.297424,0 -5.564392,-7.213104 -7.007019,-8.449646c-1.442627,-1.236511 -3.50354,-2.679169 -3.50354,-2.679169l0,-8.037445l-4.533936,0l0,-22.875854z" id="path14682" stroke-miterlimit="4" stroke-width="1.6" stroke="#000000" fill-rule="evenodd" fill="#ff7f00"/>
   <path d="m727.457214,401.370453c0,0 4.080383,1.89444 6.70343,0.874359c2.623047,-1.020111 9.617981,-6.703461 9.617981,-6.703461l49.69281,0c0,0 2.768799,1.748749 3.934631,5.829102c1.165833,4.080322 0,24.044891 0,24.044891c0,0 14.864075,7.869232 13.261108,10.929474c-1.602966,3.060272 -5.537598,2.185944 -7.286316,1.165863c-1.748718,-1.020081 -3.934631,-2.477356 -3.934631,-2.477356c0,0 -13.844055,0.437164 -18.21582,3.351685c-4.371826,2.914551 -10.49231,16.612854 -12.678223,16.467133c-2.185913,-0.145752 -5.829102,-3.497437 -8.306458,-3.497437c-2.477356,0 -3.934631,10.49231 -7.286316,9.326508c-3.351685,-1.165802 -11.803894,-11.220978 -11.803894,-11.220978c0,0 -4.226074,0.87439 -6.849121,-0.291412c-2.623108,-1.165863 -8.160706,-5.68338 -9.763733,-5.537628c-1.602966,0.145721 -2.768799,-0.728668 -2.768799,-2.914551c0,-2.185883 -1.457275,-9.035065 -1.457275,-9.035065l4.517578,-5.100433c0,0 -4.517578,-5.829071 -4.080383,-6.994873c0.437195,-1.165833 5.246155,-4.954712 6.266235,-6.994873c1.020081,-2.040192 0.582947,-11.366699 0.437195,-11.220947z" id="path14684" stroke-miterlimit="4" stroke-width="1.6" stroke="#000000" fill-rule="evenodd" fill="#ff7f00"/>
   <path d="m794.200073,395.832825l93.265137,0l0,25.356445c0,0 -2.040161,-1.165833 -5.246155,1.165833c-3.206055,2.331604 -4.66333,10.200836 -10.200867,11.366669c-5.537659,1.165833 -10.200928,5.537598 -12.824036,4.663239c-2.623047,-0.874329 -10.783752,-2.040192 -11.949524,-3.205994c-1.165833,-1.165802 -2.914551,-7.577789 -7.57782,-7.577789c-4.663269,0 -14.572693,1.457275 -17.19574,4.663239c-2.623108,3.206024 -4.663269,5.829102 -6.70343,5.829102c-2.040222,0 -4.663269,-1.457275 -4.663269,-1.457275c0,0 -1.748718,-4.371826 -6.70343,-6.994904c-4.954712,-2.623047 -7.286316,-4.080322 -7.286316,-4.080322c0,0 2.040161,-19.527374 0.874329,-22.441925c-1.165833,-2.91452 -3.497437,-6.994873 -3.788879,-7.286316z" id="path14686" stroke-miterlimit="4" stroke-width="1.6" stroke="#000000" fill-rule="evenodd" fill="#ff7f00"/>
   <text transform="matrix(1.7666666507720947,0,0,1.8461538553237915,-39.48333251476288,-85.67307785153389) " xml:space="preserve" text-anchor="middle" font-family="serif" font-size="24" id="svg_11" y="122.25" x="108.386793" stroke-linecap="null" stroke-linejoin="null" stroke-width="0" stroke="#000000" fill="#aa56ff">District 1</text>
   <text transform="matrix(1.6555556058883667,0,0,1.8461538553237915,-31.794446885585785,-140.67307844758034) " xml:space="preserve" text-anchor="middle" font-family="serif" font-size="24" id="svg_12" y="188.333333" x="108.600671" stroke-linecap="null" stroke-linejoin="null" stroke-width="0" stroke="#000000" fill="#ff0000">District 2</text>
   <text transform="matrix(1.6430554385190703,0,0,1.8004806492116356,-30.12568902945546,-178.61355513584436) " xml:space="preserve" text-anchor="middle" font-family="serif" font-size="24" id="svg_13" y="253.136516" x="108.106933" stroke-linecap="null" stroke-linejoin="null" stroke-width="0" stroke="#000000" fill="#007f3f">District 3</text>
   <text transform="matrix(1.6270833769849697,0,0,1.8270451497860163,-60.54352476010098,-268.8076340632689) " xml:space="preserve" text-anchor="middle" font-family="serif" font-size="24" id="svg_14" y="335.884076" x="127.248135" stroke-linecap="null" stroke-linejoin="null" stroke-width="0" stroke="#000000" fill="#007fff">District 4</text>
   <text transform="matrix(1.629166697500608,0,0,1.8125,-48.98411675086008,-277.671875) " xml:space="preserve" text-anchor="middle" font-family="serif" font-size="24" id="svg_15" y="379.267241" x="119.990557" stroke-linecap="null" stroke-linejoin="null" stroke-width="0" stroke="#000000" fill="#ff7f00">District 5</text>
  </g>
 </g>
</svg>